HIERARCHY
ROOT root
{
	OFFSET 0.00 0.00 0.00
	CHANNELS 6 Xposition Yposition Zposition Zrotation Xrotation Yrotation
	JOINT lowerback
	{
		OFFSET 0 0 0
		CHANNELS 6 Xposition Yposition Zposition Zrotation Xrotation Yrotation
		JOINT upperback
		{
			OFFSET -0.214371 12.3768 -1.12219
			CHANNELS 6 Xposition Yposition Zposition Zrotation Xrotation Yrotation
			JOINT thorax
			{
				OFFSET -0.00137213 12.3873 0.296195
				CHANNELS 6 Xposition Yposition Zposition Zrotation Xrotation Yrotation
				JOINT lowerneck
				{
					OFFSET 0.0883157 12.5016 0.82912
					CHANNELS 6 Xposition Yposition Zposition Zrotation Xrotation Yrotation
					JOINT upperneck
					{
						OFFSET -1 10.1794 0.943522
						CHANNELS 6 Xposition Yposition Zposition Zrotation Xrotation Yrotation
						JOINT head
						{
							OFFSET 0.667525 10.2797 -1.57149
							CHANNELS 6 Xposition Yposition Zposition Zrotation Xrotation Yrotation
							End Site
							{
								OFFSET 0 0 0
							}
						}
					}
				}
				JOINT lclavicle
				{
					OFFSET 0.0883157 12.5016 0.82912
					CHANNELS 6 Xposition Yposition Zposition Zrotation Xrotation Yrotation
					JOINT lhumerus
					{
						OFFSET 20.61 4.45006 1.43784
						CHANNELS 6 Xposition Yposition Zposition Zrotation Xrotation Yrotation
						JOINT lradius
						{
							OFFSET 0 -30.3438 0
							CHANNELS 6 Xposition Yposition Zposition Zrotation Xrotation Yrotation
							JOINT lwrist
							{
								OFFSET 0 -18.964 0
								CHANNELS 6 Xposition Yposition Zposition Zrotation Xrotation Yrotation
								JOINT lhand
								{
									OFFSET 0 -9.48199 0
									CHANNELS 6 Xposition Yposition Zposition Zrotation Xrotation Yrotation
									JOINT lfingers
									{
										OFFSET 0 -3.17138 0
										CHANNELS 6 Xposition Yposition Zposition Zrotation Xrotation Yrotation
										End Site
										{
											OFFSET 0 -2.55685 0
										}
									}
								}
								JOINT lthumb
								{
									OFFSET 0 -9.48199 0
									CHANNELS 6 Xposition Yposition Zposition Zrotation Xrotation Yrotation
									End Site
									{
										OFFSET 0 -3.67114 0
									}
								}
							}
						}
					}
				}
				JOINT rclavicle
				{
					OFFSET 0.0883157 12.5016 0.82912
					CHANNELS 6 Xposition Yposition Zposition Zrotation Xrotation Yrotation
					JOINT rhumerus
					{
						OFFSET -20.61 4.45 1.44
						CHANNELS 6 Xposition Yposition Zposition Zrotation Xrotation Yrotation
						JOINT rradius
						{
							OFFSET 0 -29.5102 0
							CHANNELS 6 Xposition Yposition Zposition Zrotation Xrotation Yrotation
							JOINT rwrist
							{
								OFFSET 0 -19.2342 0
								CHANNELS 6 Xposition Yposition Zposition Zrotation Xrotation Yrotation
								JOINT rhand
								{
									OFFSET 0 -9.61712 0
									CHANNELS 6 Xposition Yposition Zposition Zrotation Xrotation Yrotation
									JOINT rfingers
									{
										OFFSET 0 -3.29215 0
										CHANNELS 6 Xposition Yposition Zposition Zrotation Xrotation Yrotation
										End Site
										{
											OFFSET 0 -2.557 0
										}
									}
								}
								JOINT rthumb
								{
									OFFSET 0 -9.61712 0
									CHANNELS 6 Xposition Yposition Zposition Zrotation Xrotation Yrotation
									End Site
									{
										OFFSET 0 -3.671 0
									}
								}
							}
						}
					}
				}
			}
		}
	}
	JOINT rfemur
	{
		OFFSET -8.46272 -9.62775 4.76248
		CHANNELS 6 Xposition Yposition Zposition Zrotation Xrotation Yrotation
		JOINT rtibia
		{
			OFFSET 1.00552e-005 -38.0331 0
			CHANNELS 6 Xposition Yposition Zposition Zrotation Xrotation Yrotation
			JOINT rfoot
			{
				OFFSET 1.14428e-005 -43.2815 0
				CHANNELS 6 Xposition Yposition Zposition Zrotation Xrotation Yrotation
				JOINT rtoes
				{
					OFFSET 0 -14.1868 -3.08763
					CHANNELS 6 Xposition Yposition Zposition Zrotation Xrotation Yrotation
					End Site
					{
						OFFSET 0 -7.27332 0
					}
				}
			}
		}
	}
	JOINT lfemur
	{
		OFFSET 9.10607 -9.62778 4.76249
		CHANNELS 6 Xposition Yposition Zposition Zrotation Xrotation Yrotation
		JOINT ltibia
		{
			OFFSET -1.01399e-005 -38.3535 0
			CHANNELS 6 Xposition Yposition Zposition Zrotation Xrotation Yrotation
			JOINT lfoot
			{
				OFFSET -1.12937e-005 -42.7176 0
				CHANNELS 6 Xposition Yposition Zposition Zrotation Xrotation Yrotation
				JOINT ltoes
				{
					OFFSET 0 -13.9965 -2.83857
					CHANNELS 6 Xposition Yposition Zposition Zrotation Xrotation Yrotation
					End Site
					{
						OFFSET 0 -7.16348 0
					}
				}
			}
		}
	}
}
MOTION
Frames: 6
Frame Time: 0.00833333
-3.35189	92.7636	34.5866	1.29788	16.374	-8.73341	0 0 0 1.17566	36.7949	-1.47662	-0.214371 12.3768 -1.12219 -0.888406	8.98827	-1.56465	-0.00137213 12.3873 0.296195 -0.864776	-8.30508	-0.733119	0.0883157 12.5016 0.82912 1.48819	16.1117	0.485045	-1 10.1794 0.943522 2.92702	-13.6544	1.50944	0.667525 10.2797 -1.57149 0.472889	-6.92079	0.394383	0.0883157 12.5016 0.82912 -15	0	-0	20.61 4.45006 1.43784 20.1304	5.38767	170.385	0 -30.3438 0 -0	62.9072	-0	0 -18.964 0 9.40171e-016	3.5074e-015	-83.3508	0 -9.48199 0 1.22245	4.37968	-2.58917e-014	0 -3.17138 0 -0	7.12502	-0	0 -9.48199 0 25	15	-1.36605e-015	0.0883157 12.5016 0.82912 15	0	-0	-20.61 4.45 1.44 -15.4661	3.53729	-179.117	0 -29.5102 0 -0	57.8042	-0	0 -19.2342 0 9.33336e-016	-3.49668e-015	119.89	0 -9.61712 0 1.22	4.38	-0	0 -3.29215 0 -0	7.12502	-0	0 -9.61712 0 25	15	-7.97034e-015	-8.46272 -9.62775 4.76248 9.00274	-63.6187	11.5997	1.00552e-005 -38.0331 0 -0	42.7855	-0	1.14428e-005 -43.2815 0 -40.8355	-67.7144	-43.046	0 -14.1868 -3.08763 -0	-32.7761	-0	9.10607 -9.62778 4.76249 -4.11486	-39.8199	4.40027	-1.01399e-005 -38.3535 0 -0	45.796	-0	-1.12937e-005 -42.7176 0 -4.47428	-86.8822	-4.48099	0 -13.9965 -2.83857 -0	-16.5412	-0
-3.50043	92.9561	34.9833	1.36064	16.3977	-8.33729	0 0 0 1.31816	36.5903	-1.51979	-0.214371 12.3768 -1.12219 -0.842491	9.29782	-1.55913	-0.00137213 12.3873 0.296195 -0.89094	-7.89593	-0.729029	0.0883157 12.5016 0.82912 1.49459	17.5397	0.313614	-1 10.1794 0.943522 3.09947	-15.3618	1.40068	0.667525 10.2797 -1.57149 0.527087	-7.69469	0.287269	0.0883157 12.5016 0.82912 -15	0	-0	20.61 4.45006 1.43784 19.8287	5.18821	170.686	0 -30.3438 0 -0	62.9652	-0	0 -18.964 0 9.46006e-016	3.45699e-015	-83.4468	0 -9.48199 0 1.22245	4.37968	-2.58917e-014	0 -3.17138 0 -0	7.12502	-0	0 -9.48199 0 25	15	-1.36605e-015	0.0883157 12.5016 0.82912 15	0	-0	-20.61 4.45 1.44 -15.3491	3.41734	-179.5	0 -29.5102 0 -0	58.0775	-0	0 -19.2342 0 9.2913e-016	-3.48935e-015	119.821	0 -9.61712 0 1.22	4.38	-0	0 -3.29215 0 -0	7.12502	-0	0 -9.61712 0 25	15	-7.97034e-015	-8.46272 -9.62775 4.76248 8.58619	-61.9877	12.2736	1.00552e-005 -38.0331 0 -0	39.7746	-0	1.14428e-005 -43.2815 0 -40.0842	-67.1322	-42.4082	0 -14.1868 -3.08763 -0	-32.1138	-0	9.10607 -9.62778 4.76249 -4.26179	-39.1567	4.35877	-1.01399e-005 -38.3535 0 -0	45.0558	-0	-1.12937e-005 -42.7176 0 -11.3249	-86.6867	-11.3435	0 -13.9965 -2.83857 -0	-16.4907	-0
-3.6536	93.1221	35.3895	1.42992	16.4308	-7.90689	0 0 0 1.47146	36.3808	-1.57322	-0.214371 12.3768 -1.12219 -0.786052	9.59102	-1.56184	-0.00137213 12.3873 0.296195 -0.907333	-7.50537	-0.729033	0.0883157 12.5016 0.82912 1.53353	18.7156	0.149846	-1 10.1794 0.943522 3.22481	-16.7256	1.28717	0.667525 10.2797 -1.57149 0.569417	-8.32171	0.185587	0.0883157 12.5016 0.82912 -15	0	-0	20.61 4.45006 1.43784 19.5375	5.05733	170.953	0 -30.3438 0 -0	63.0823	-0	0 -18.964 0 9.50869e-016	3.41439e-015	-83.5279	0 -9.48199 0 1.22245	4.37968	-2.58917e-014	0 -3.17138 0 -0	7.12502	-0	0 -9.48199 0 25	15	-1.36605e-015	0.0883157 12.5016 0.82912 15	0	-0	-20.61 4.45 1.44 -15.2407	3.38	-179.878	0 -29.5102 0 -0	58.4144	-0	0 -19.2342 0 9.23778e-016	-3.48e-015	119.733	0 -9.61712 0 1.22	4.38	-0	0 -3.29215 0 -0	7.12502	-0	0 -9.61712 0 25	15	-7.97034e-015	-8.46272 -9.62775 4.76248 8.15344	-60.4544	13.0006	1.00552e-005 -38.0331 0 -0	37.1441	-0	1.14428e-005 -43.2815 0 -39.4974	-66.4635	-41.957	0 -14.1868 -3.08763 -0	-31.275	-0	9.10607 -9.62778 4.76249 -4.44224	-38.5214	4.26272	-1.01399e-005 -38.3535 0 -0	44.3502	-0	-1.12937e-005 -42.7176 0 -17.1852	-86.4655	-17.2161	0 -13.9965 -2.83857 -0	-16.4372	-0
-3.80944	93.2587	35.8062	1.5062	16.4765	-7.45121	0 0 0 1.63322	36.173	-1.63554	-0.214371 12.3768 -1.12219 -0.720341	9.85953	-1.57212	-0.00137213 12.3873 0.296195 -0.913999	-7.14462	-0.730518	0.0883157 12.5016 0.82912 1.59357	19.6495	-0.00235578	-1 10.1794 0.943522 3.30723	-17.7598	1.17159	0.667525 10.2797 -1.57149 0.601506	-8.80776	0.0917233	0.0883157 12.5016 0.82912 -15	0	-0	20.61 4.45006 1.43784 19.2566	5.00138	171.186	0 -30.3438 0 -0	63.2523	-0	0 -18.964 0 9.54829e-016	3.37929e-015	-83.5947	0 -9.48199 0 1.22245	4.37968	-2.58917e-014	0 -3.17138 0 -0	7.12502	-0	0 -9.48199 0 25	15	-1.36605e-015	0.0883157 12.5016 0.82912 15	0	-0	-20.61 4.45 1.44 -15.1413	3.42854	179.757	0 -29.5102 0 -0	58.8088	-0	0 -19.2342 0 9.17653e-016	-3.46925e-015	119.632	0 -9.61712 0 1.22	4.38	-0	0 -3.29215 0 -0	7.12502	-0	0 -9.61712 0 25	15	-7.97034e-015	-8.46272 -9.62775 4.76248 7.70967	-59.0497	13.7528	1.00552e-005 -38.0331 0 -0	34.9138	-0	1.14428e-005 -43.2815 0 -39.0728	-65.7162	-41.6912	0 -14.1868 -3.08763 -0	-30.2638	-0	9.10607 -9.62778 4.76249 -4.65526	-37.9201	4.10814	-1.01399e-005 -38.3535 0 -0	43.6819	-0	-1.12937e-005 -42.7176 0 -22.0239	-86.236	-22.067	0 -13.9965 -2.83857 -0	-16.3909	-0
-3.96851	93.3608	36.2325	1.58951	16.5373	-6.98247	0 0 0 1.80039	35.9741	-1.70419	-0.214371 12.3768 -1.12219 -0.647666	10.0966	-1.58813	-0.00137213 12.3873 0.296195 -0.912836	-6.8232	-0.735069	0.0883157 12.5016 0.82912 1.66313	20.3621	-0.13941	-1 10.1794 0.943522 3.35244	-18.4952	1.05737	0.667525 10.2797 -1.57149 0.625081	-9.16533	0.00770955	0.0883157 12.5016 0.82912 -15	0	-0	20.61 4.45006 1.43784 18.9864	5.02283	171.382	0 -30.3438 0 -0	63.466	-0	0 -18.964 0 9.58036e-016	3.35061e-015	-83.6493	0 -9.48199 0 1.22245	4.37968	-2.58917e-014	0 -3.17138 0 -0	7.12502	-0	0 -9.48199 0 25	15	-1.36605e-015	0.0883157 12.5016 0.82912 15	0	-0	-20.61 4.45 1.44 -15.0513	3.5606	179.413	0 -29.5102 0 -0	59.2503	-0	0 -19.2342 0 9.11004e-016	-3.45754e-015	119.522	0 -9.61712 0 1.22	4.38	-0	0 -3.29215 0 -0	7.12502	-0	0 -9.61712 0 25	15	-7.97034e-015	-8.46272 -9.62775 4.76248 7.26564	-57.7993	14.5028	1.00552e-005 -38.0331 0 -0	33.0872	-0	1.14428e-005 -43.2815 0 -38.7939	-64.9036	-41.5934	0 -14.1868 -3.08763 -0	-29.1016	-0	9.10607 -9.62778 4.76249 -4.89746	-37.3566	3.89483	-1.01399e-005 -38.3535 0 -0	43.0515	-0	-1.12937e-005 -42.7176 0 -25.8853	-86.0153	-25.9399	0 -13.9965 -2.83857 -0	-16.3624	-0
-4.12988	93.4376	36.6631	1.67948	16.6148	-6.51565	0 0 0 1.96917	35.7917	-1.7755	-0.214371 12.3768 -1.12219 -0.571321	10.2974	-1.607	-0.00137213 12.3873 0.296195 -0.906411	-6.54834	-0.740676	0.0883157 12.5016 0.82912 1.7318	20.8807	-0.258423	-1 10.1794 0.943522 3.36674	-18.9747	0.948189	0.667525 10.2797 -1.57149 0.641697	-9.41188	-0.0649212	0.0883157 12.5016 0.82912 -15	0	-0	20.61 4.45006 1.43784 18.7282	5.12015	171.541	0 -30.3438 0 -0	63.7121	-0	0 -18.964 0 9.60687e-016	3.3267e-015	-83.6948	0 -9.48199 0 1.22245	4.37968	-2.58917e-014	0 -3.17138 0 -0	7.12502	-0	0 -9.48199 0 25	15	-1.36605e-015	0.0883157 12.5016 0.82912 15	0	-0	-20.61 4.45 1.44 -14.971	3.76816	179.097	0 -29.5102 0 -0	59.7251	-0	0 -19.2342 0 9.04316e-016	-3.4457e-015	119.411	0 -9.61712 0 1.22	4.38	-0	0 -3.29215 0 -0	7.12502	-0	0 -9.61712 0 25	15	-7.97034e-015	-8.46272 -9.62775 4.76248 6.83547	-56.7221	15.2253	1.00552e-005 -38.0331 0 -0	31.652	-0	1.14428e-005 -43.2815 0 -38.6321	-64.0438	-41.6326	0 -14.1868 -3.08763 -0	-27.8266	-0	9.10607 -9.62778 4.76249 -5.16311	-36.8327	3.62679	-1.01399e-005 -38.3535 0 -0	42.4577	-0	-1.12937e-005 -42.7176 0 -28.846	-85.819	-28.9107	0 -13.9965 -2.83857 -0	-16.3619	-0
